<svg width="397" height="153" viewBox="0 0 397 153" fill="none" xmlns="http://www.w3.org/2000/svg">
<path d="M119.425 111.969C114.193 111.969 109.445 110.806 105.182 108.481C100.983 106.091 97.656 102.893 95.2013 98.888C92.7466 94.883 91.5193 90.3935 91.5193 85.4195C91.5193 80.4456 92.682 75.9561 95.0075 71.951C97.3976 67.946 100.627 64.7808 104.697 62.4553C108.767 60.0652 113.289 58.8701 118.262 58.8701C123.301 58.8701 127.758 60.0975 131.634 62.5522C135.51 64.9422 138.546 68.2367 140.742 72.4355C143.003 76.6343 144.134 81.4468 144.134 86.873V90.7488H107.604C108.315 92.3637 109.251 93.7849 110.414 95.0122C111.641 96.2396 113.095 97.2085 114.774 97.9191C116.454 98.5651 118.262 98.888 120.2 98.888C122.332 98.888 124.27 98.5651 126.014 97.9191C127.758 97.2085 129.244 96.2396 130.471 95.0122L140.839 104.217C137.609 106.93 134.283 108.901 130.859 110.128C127.5 111.355 123.689 111.969 119.425 111.969ZM107.313 79.7996H128.727C128.21 78.1201 127.403 76.6989 126.305 75.5362C125.271 74.3088 124.044 73.3722 122.623 72.7262C121.202 72.0156 119.651 71.6604 117.972 71.6604C116.228 71.6604 114.645 71.9833 113.224 72.6293C111.803 73.2753 110.575 74.2119 109.542 75.4393C108.573 76.602 107.83 78.0555 107.313 79.7996ZM146.626 111V43.173L162.324 40.7506V63.3273C166.329 60.485 170.85 59.0639 175.889 59.0639C180.798 59.0639 185.223 60.259 189.164 62.6491C193.104 64.9745 196.237 68.1398 198.563 72.1448C200.888 76.0853 202.051 80.5102 202.051 85.4195C202.051 90.3289 200.856 94.7861 198.466 98.7911C196.14 102.732 192.943 105.865 188.873 108.19C184.868 110.516 180.378 111.678 175.404 111.678C173.014 111.678 170.689 111.388 168.428 110.806C166.167 110.16 164.068 109.256 162.13 108.093V111H146.626ZM173.176 98.4036C175.76 98.4036 178.053 97.8545 180.055 96.7563C182.058 95.5936 183.641 94.0433 184.803 92.1053C186.031 90.1028 186.644 87.8742 186.644 85.4195C186.644 82.9648 186.031 80.7685 184.803 78.8306C183.641 76.8281 182.026 75.2778 179.959 74.1796C177.956 73.0169 175.695 72.4355 173.176 72.4355C170.98 72.4355 168.977 72.7908 167.168 73.5014C165.36 74.1473 163.745 75.1486 162.324 76.5051V94.4308C163.68 95.6582 165.295 96.6271 167.168 97.3377C169.042 98.0483 171.044 98.4036 173.176 98.4036ZM212.062 111V57.9012H189.873V43.173H250.917V57.9012H228.728V111H212.062ZM266.604 111.969C261.372 111.969 256.624 110.806 252.361 108.481C248.162 106.091 244.835 102.893 242.381 98.888C239.926 94.883 238.699 90.3935 238.699 85.4195C238.699 80.4456 239.861 75.9561 242.187 71.951C244.577 67.946 247.807 64.7808 251.876 62.4553C255.946 60.0652 260.468 58.8701 265.442 58.8701C270.48 58.8701 274.938 60.0975 278.813 62.5522C282.689 64.9422 285.725 68.2367 287.922 72.4355C290.182 76.6343 291.313 81.4468 291.313 86.873V90.7488H254.783C255.494 92.3637 256.43 93.7849 257.593 95.0122C258.821 96.2396 260.274 97.2085 261.953 97.9191C263.633 98.5651 265.442 98.888 267.38 98.888C269.511 98.888 271.449 98.5651 273.193 97.9191C274.938 97.2085 276.423 96.2396 277.651 95.0122L288.018 104.217C284.789 106.93 281.462 108.901 278.038 110.128C274.679 111.355 270.868 111.969 266.604 111.969ZM254.493 79.7996H275.906C275.39 78.1201 274.582 76.6989 273.484 75.5362C272.451 74.3088 271.223 73.3722 269.802 72.7262C268.381 72.0156 266.831 71.6604 265.151 71.6604C263.407 71.6604 261.824 71.9833 260.403 72.6293C258.982 73.2753 257.755 74.2119 256.721 75.4393C255.752 76.602 255.009 78.0555 254.493 79.7996ZM319.084 111.969C313.981 111.969 309.362 110.806 305.228 108.481C301.158 106.155 297.929 102.99 295.538 98.9849C293.148 94.9153 291.953 90.3935 291.953 85.4195C291.953 80.381 293.148 75.8592 295.538 71.8541C297.929 67.8491 301.158 64.6839 305.228 62.3584C309.362 59.9683 313.981 58.7732 319.084 58.7732C323.283 58.7732 327.288 59.613 331.099 61.2925C334.91 62.9074 338.14 65.2329 340.789 68.269L331.196 78.2493C329.387 76.1821 327.546 74.6964 325.673 73.7921C323.8 72.8231 321.733 72.3386 319.472 72.3386C317.211 72.3386 315.176 72.92 313.367 74.0827C311.559 75.1809 310.137 76.7312 309.104 78.7337C308.07 80.6717 307.554 82.9003 307.554 85.4195C307.554 87.8742 308.07 90.1028 309.104 92.1053C310.202 94.0433 311.688 95.5936 313.561 96.7563C315.434 97.8545 317.534 98.4036 319.859 98.4036C321.991 98.4036 323.961 97.9514 325.77 97.047C327.579 96.1427 329.323 94.7538 331.002 92.8805L340.304 102.57C337.72 105.542 334.555 107.867 330.808 109.547C327.062 111.161 323.154 111.969 319.084 111.969ZM341.667 111V43.173L357.364 39.7817V63.2304C361.24 60.259 365.826 58.7732 371.123 58.7732C375.128 58.7732 378.649 59.6453 381.685 61.3894C384.785 63.1335 387.208 65.5559 388.952 68.6566C390.696 71.7572 391.568 75.3424 391.568 79.412V111H375.871V81.5437C375.871 78.7014 375.031 76.4405 373.352 74.761C371.672 73.0815 369.411 72.2417 366.569 72.2417C364.567 72.2417 362.79 72.597 361.24 73.3076C359.754 74.0181 358.462 75.0194 357.364 76.3113V111H341.667Z" fill="#151934"/>
<path d="M84 41L70.5 102H66L51 41H47.75" stroke="#7214FF" stroke-width="18" stroke-linecap="square"/>
<path d="M11 41L24.5 102H28L44.5 41H45" stroke="#7214FF" stroke-width="18" stroke-linecap="square"/>
<rect x="212" y="58" width="9" height="53" fill="#7214FF"/>
<rect x="221" y="58" width="8" height="53" fill="#7214FF"/>
<rect x="221" y="43" width="30" height="15" fill="#7214FF"/>
<rect x="190" y="43" width="31" height="15" fill="#7214FF"/>
</svg>
